Title: The Other Bank aka Gagma Napiri

Country: Georgia, 2010

Director: George Ovashvili

Writers: Rustam Ibragimbekov (adaptation), George Ovashvili (adaptation)

Stars: Tedo Bekhauri, Tamar Meskhi and Archil Tabukashvili 

Plot: A young refugee and his mother flee ethnic cleansing in the Georgian region of Abkhazia, leaving his father behind. After arriving in the Georgina capital of Tbilisi, the young boy encounters difficulties with his mother, and begins a lonely journey back to Abkahzia to find his father.

IMDB: 
http://www.imdb.com/title/tt1368439/


Rip Specs:


General
Complete name                    : The.Other.Bank.2010.BRRip.AC3.HORiZON-ArtSubs.avi
Format                           : AVI
Format/Info                      : Audio Video Interleave
File size                        : 1.46 GiB
Duration                         : 1h 29mn
Overall bit rate                 : 2 345 Kbps
Writing application              : FairUse Wizard - http://fairusewizard.com
Writing library                  : The best and REALLY easy backup tool

Video
ID                               : 0
Format                           : MPEG-4 Visual
Format profile                   : Advanced Simple@L5
Format settings, BVOP            : 1
Format settings, QPel            : No
Format settings, GMC             : No warppoints
Format settings, Matrix          : Default (MPEG)
Muxing mode                      : Packed bitstream
Codec ID                         : XVID
Codec ID/Hint                    : XviD
Duration                         : 1h 29mn
Bit rate                         : 2 143 Kbps
Width                            : 688 pixels
Height                           : 368 pixels
Display aspect ratio             : 1.870
Frame rate                       : 25.000 fps
Color space                      : YUV
Chroma subsampling               : 4:2:0
Bit depth                        : 8 bits
Scan type                        : Progressive
Compression mode                 : Lossy
Bits/(Pixel*Frame)               : 0.339
Stream size                      : 1.34 GiB (91%)
Writing library                  : XviD 1.2.0.dev47 (UTC 2006-11-01)

Audio
ID                               : 1
Format                           : AC-3
Format/Info                      : Audio Coding 3
Mode extension                   : CM (complete main)
Codec ID                         : 2000
Duration                         : 1h 29mn
Bit rate mode                    : Constant
Bit rate                         : 192 Kbps
Channel(s)                       : 2 channels
Channel positions                : Front: L R
Sampling rate                    : 48.0 KHz
Bit depth                        : 16 bits
Compression mode                 : Lossy
Stream size                      : 123 MiB (8%)
Alignment                        : Split accross interleaves
Interleave, duration             : 40 ms (1.00 video frame)
Interleave, preload duration     : 500 ms
